<?xml version="1.0" standalone="no"?><!DOCTYPE svg PUBLIC "-//W3C//DTD SVG 1.1//EN" "http://www.w3.org/Graphics/SVG/1.1/DTD/svg11.dtd"><svg t="1547860019226" class="icon" style="" viewBox="0 0 1070 1024" version="1.1" xmlns="http://www.w3.org/2000/svg" p-id="9835" xmlns:xlink="http://www.w3.org/1999/xlink" width="208.984375" height="200"><defs><style type="text/css"></style></defs><path d="M569.949091 725.457455l171.752727-171.706182a34.676364 34.676364 0 1 1 49.012364 49.058909l-230.912 230.912a34.676364 34.676364 0 0 1-49.058909 0l-230.912-230.912a34.676364 34.676364 0 0 1 49.012363-49.058909l171.752728 171.752727V35.048727a34.676364 34.676364 0 0 1 69.352727 0v690.362182z m381.626182 26.298181c0-19.176727 20.48-34.722909 39.656727-34.722909 19.130182 0 37.236364 15.546182 37.236364 34.722909v259.444364H40.354909v-259.444364c0-19.176727 19.874909-34.722909 39.005091-34.722909 19.176727 0 39.610182 15.546182 39.610182 34.722909v173.428364h832.605091v-173.428364z" fill="#1296db" p-id="9836"></path></svg>