<?xml version="1.0" standalone="no"?><!DOCTYPE svg PUBLIC "-//W3C//DTD SVG 1.1//EN" "http://www.w3.org/Graphics/SVG/1.1/DTD/svg11.dtd"><svg t="1547860043286" class="icon" style="" viewBox="0 0 1024 1024" version="1.1" xmlns="http://www.w3.org/2000/svg" p-id="10616" xmlns:xlink="http://www.w3.org/1999/xlink" width="200" height="200"><defs><style type="text/css"></style></defs><path d="M791.36 656.507c-43.775 0-82.583 20.938-107.19 53.271l-283.255-168.667c3.223-12.4 5.105-25.333 5.105-38.753 0-3.892-0.307-7.686-0.571-11.493l283.385-170.758c24.733 28.96 61.461 47.387 102.531 47.387 74.491 0 134.866-60.387 134.866-134.879 0-74.477-60.377-134.866-134.866-134.866-74.493 0-134.866 60.387-134.866 134.866 0 14.787 2.454 28.946 6.834 42.254l-280.963 145.706c-27.286-43.413-75.455-72.345-130.478-72.345-85.122 0-154.137 69.010-154.137 154.132 0 85.135 69.015 154.144 154.137 154.144 45.621 0 86.49-19.949 114.718-51.45l294.41 152.275c-2.846 10.879-4.492 22.251-4.492 34.036 0 74.493 60.374 134.88 134.866 134.88s134.864-60.387 134.864-134.88c0-74.479-60.403-134.864-134.894-134.864v0zM791.36 656.507z" p-id="10617" fill="#1296db"></path></svg>