<?xml version="1.0" standalone="no"?><!DOCTYPE svg PUBLIC "-//W3C//DTD SVG 1.1//EN" "http://www.w3.org/Graphics/SVG/1.1/DTD/svg11.dtd"><svg t="1547775665232" class="icon" style="" viewBox="0 0 1024 1024" version="1.1" xmlns="http://www.w3.org/2000/svg" p-id="9854" xmlns:xlink="http://www.w3.org/1999/xlink" width="200" height="200"><defs><style type="text/css"></style></defs><path d="M832 96h-64v-29.504a32 32 0 1 0-64 0V96h-160v-29.504a32 32 0 1 0-64 0V96h-160v-29.504a32 32 0 1 0-64 0V96H192C103.776 96 32 167.776 32 256v576c0 88.224 71.776 160 160 160h640c88.224 0 160-71.776 160-160V256c0-88.224-71.776-160-160-160zM192 160h64v34.496a32 32 0 1 0 64 0V160h160v34.496a32 32 0 1 0 64 0V160h160v34.496a32 32 0 1 0 64 0V160h64c52.928 0 96 43.072 96 96v56H96V256c0-52.928 43.072-96 96-96z m640 768H192c-52.928 0-96-43.072-96-96V376h832V832c0 52.928-43.072 96-96 96z" p-id="9855" fill="#1296db"></path><path d="M676.896 509.376l-195.36 195.36-104.448-104.416a31.968 31.968 0 1 0-45.248 45.248l127.072 127.04a31.904 31.904 0 0 0 45.248 0l218.016-218.016a31.968 31.968 0 1 0-45.28-45.216z" p-id="9856" fill="#1296db"></path></svg>