<?xml version="1.0" standalone="no"?><!DOCTYPE svg PUBLIC "-//W3C//DTD SVG 1.1//EN" "http://www.w3.org/Graphics/SVG/1.1/DTD/svg11.dtd"><svg t="1547883733412" class="icon" style="" viewBox="0 0 1024 1024" version="1.1" xmlns="http://www.w3.org/2000/svg" p-id="1453" xmlns:xlink="http://www.w3.org/1999/xlink" width="200" height="200"><defs><style type="text/css"></style></defs><path d="M355.4 494.4c-68.4 0-124.1-55.7-124.1-124.1 0-68.4 55.7-124.1 124.1-124.1 68.4 0 124.1 55.7 124.1 124.1 0 68.4-55.7 124.1-124.1 124.1z m0-222.1c-54.1 0-98.1 44-98.1 98.1 0 54.1 44 98.1 98.1 98.1 54.1 0 98.1-44 98.1-98.1 0-54.2-44-98.1-98.1-98.1z" fill="#1296db" p-id="1454"></path><path d="M573 683.6h-26C547 578 461 492 355.4 492s-191.6 85.9-191.6 191.6h-26c0-58.1 22.6-112.7 63.7-153.8 41.1-41.1 95.7-63.7 153.8-63.7s112.7 22.6 153.8 63.7c41.3 41 63.9 95.7 63.9 153.8z" fill="#1296db" p-id="1455"></path><path d="M875.5 832.5h-720c-48.2 0-87.5-39.3-87.5-87.5V208c0-48.2 39.3-87.5 87.5-87.5h720c48.3 0 87.5 39.3 87.5 87.5v537c0 48.3-39.3 87.5-87.5 87.5z m-720-686c-33.9 0-61.5 27.6-61.5 61.5v537c0 33.9 27.6 61.5 61.5 61.5h720c33.9 0 61.5-27.6 61.5-61.5V208c0-33.9-27.6-61.5-61.5-61.5h-720z" fill="#1296db" p-id="1456"></path><path d="M572.7 314.9h320.2v26H572.7zM572.7 452.1h320.2v26H572.7zM689.9 589.3h203v26h-203z" fill="#1296db" p-id="1457"></path></svg>