<?xml version="1.0" standalone="no"?><!DOCTYPE svg PUBLIC "-//W3C//DTD SVG 1.1//EN" "http://www.w3.org/Graphics/SVG/1.1/DTD/svg11.dtd"><svg t="1547801702897" class="icon" style="" viewBox="0 0 1024 1024" version="1.1" xmlns="http://www.w3.org/2000/svg" p-id="1980" xmlns:xlink="http://www.w3.org/1999/xlink" width="200" height="200"><defs><style type="text/css"></style></defs><path d="M 197.031 417.342 c -52.2367 0 -94.6149 42.3976 -94.6149 94.6374 c 0 52.2562 42.3782 94.6343 94.6149 94.6343 c 52.2398 0 94.6374 -42.3782 94.6374 -94.6343 C 291.668 459.74 249.271 417.342 197.031 417.342 Z" fill="#ffffff" p-id="1981"></path><path d="M 511.999 417.342 c -52.2582 0 -94.6149 42.3976 -94.6149 94.6374 c 0 52.2562 42.3567 94.6343 94.6149 94.6343 c 52.2377 0 94.5944 -42.3782 94.5944 -94.6343 C 606.594 459.74 564.237 417.342 511.999 417.342 Z" fill="#ffffff" p-id="1982"></path><path d="M 826.926 417.342 c -52.1978 0 -94.5944 42.3976 -94.5944 94.6374 c 0 52.2562 42.3976 94.6343 94.5944 94.6343 c 52.2592 0 94.6568 -42.3782 94.6568 -94.6343 C 921.583 459.74 879.185 417.342 826.926 417.342 Z" fill="#ffffff" p-id="1983"></path></svg>