<?xml version="1.0" standalone="no"?><!DOCTYPE svg PUBLIC "-//W3C//DTD SVG 1.1//EN" "http://www.w3.org/Graphics/SVG/1.1/DTD/svg11.dtd"><svg t="1547692697042" class="icon" style="" viewBox="0 0 1026 1024" version="1.1" xmlns="http://www.w3.org/2000/svg" p-id="8229" xmlns:xlink="http://www.w3.org/1999/xlink" width="200.390625" height="200"><defs><style type="text/css"></style></defs><path d="M934.007467 95.197867l-212.5824 0c-50.107733 0-120.046933 30.4128-155.477333 67.618133L208.810667 537.668267c-35.4304 37.205333-35.4304 98.065067 0 135.2704l265.9328 279.210667c35.4304 37.205333 93.422933 37.205333 128.853333 0l357.034667-374.8864c35.4304-37.205333 64.4096-110.626133 64.4096-163.259733L1025.041067 190.839467C1025.0752 138.205867 984.1152 95.197867 934.007467 95.197867L934.007467 95.197867 934.007467 95.197867zM812.458667 414.0032c-50.312533 0-91.067733-42.871467-91.067733-95.607467 0-52.736 40.7552-95.607467 91.067733-95.607467 50.312533 0 91.067733 42.871467 91.067733 95.607467C903.5264 371.131733 862.7712 414.0032 812.458667 414.0032L812.458667 414.0032 812.458667 414.0032zM74.769067 627.8144l324.949333 341.128533c-34.4064 19.114667-78.301867 13.482667-107.178667-16.827733l-265.966933-279.210667c-35.4304-37.205333-35.4304-98.065067 0-135.2704l357.034667-374.8864c35.4304-37.205333 105.3696-67.618133 155.477333-67.618133L74.769067 582.724267C62.958933 595.1488 62.958933 615.424 74.769067 627.8144L74.769067 627.8144 74.769067 627.8144z" p-id="8230" data-spm-anchor-id="a313x.7781069.0.i10" class="selected" fill="#515151"></path></svg>