<?xml version="1.0" standalone="no"?><!DOCTYPE svg PUBLIC "-//W3C//DTD SVG 1.1//EN" "http://www.w3.org/Graphics/SVG/1.1/DTD/svg11.dtd"><svg t="1547859966113" class="icon" style="" viewBox="0 0 1024 1024" version="1.1" xmlns="http://www.w3.org/2000/svg" p-id="5366" xmlns:xlink="http://www.w3.org/1999/xlink" width="200" height="200"><defs><style type="text/css"></style></defs><path d="M814.374 125.957c25.716 0 46.639 20.922 46.639 46.64 0 11.473-3.99 22.085-11.537 30.689-0.78 0.89-1.536 1.804-2.264 2.738L601.415 460.506a61.079 61.079 0 0 0-17.145 42.433v360.256L431.683 739.522V495.224a61.08 61.08 0 0 0-17.123-42.409L177.216 206.818a60.872 60.872 0 0 0-3.239-4.182c-7.19-8.498-10.99-18.886-10.99-30.039 0-25.718 20.922-46.64 46.638-46.64h604.749m0-61.078H209.626c-59.39 0-107.717 48.326-107.717 107.718 0 25.644 9.007 50.066 25.441 69.49a30.39 30.39 0 0 0 4.296 5.466l238.96 247.67v258.895c0 9.162 4.087 17.356 10.518 22.905 0.372 0.347 0.718 0.707 1.107 1.039l214.733 174.043a29.403 29.403 0 0 0 19.105 7.016c8.373 0 16.698-3.54 22.545-10.43 5.623-6.623 7.782-15 6.733-22.983v-422.77l246.889-255.614c1.18-1.18 2.21-2.448 3.155-3.76 17.238-19.652 26.699-44.684 26.699-70.968 0.001-59.392-48.32-107.717-107.716-107.717z" p-id="5367" fill="#1296db"></path></svg>