<?xml version="1.0" standalone="no"?><!DOCTYPE svg PUBLIC "-//W3C//DTD SVG 1.1//EN" "http://www.w3.org/Graphics/SVG/1.1/DTD/svg11.dtd"><svg t="1547791349303" class="icon" style="" viewBox="0 0 1024 1024" version="1.1" xmlns="http://www.w3.org/2000/svg" p-id="33329" xmlns:xlink="http://www.w3.org/1999/xlink" width="200" height="200"><defs><style type="text/css"></style></defs><path d="M512 512m-447 0a447 447 0 1 0 894 0 447 447 0 1 0-894 0Z" fill="#53C000" p-id="33330"></path><path d="M385.803 236.333c-30.664 76.279-60.768 135.17-90.301 176.675 24.679-2.988 53.283-8.221 85.813-15.705 16.073-32.153 28.228-57.016 36.457-74.596l26.922 10.096c-53.476 108.064-97.592 183.783-132.366 227.154 37.018-8.22 71.976-18.692 104.884-31.408v28.043c-48.235 17.948-95.165 30.287-140.779 37.018l-8.413-28.043c5.231-2.244 10.096-5.232 14.582-8.975 23.181-26.168 51.224-69.733 84.132-130.684-37.018 7.484-70.486 13.461-100.396 17.948l-7.853-28.044c5.232-2.611 9.535-6.354 12.9-11.217 32.53-50.847 61.135-110.676 85.813-179.48l28.605 11.218z m52.722 429.068c-52.722 19.438-111.245 34.958-175.553 46.553l-4.487-31.409c68.427-11.217 128.44-26.36 180.04-45.431v30.287z m135.17-436.921c-5.24 20.192-11.41 38.333-18.509 54.405h166.579v24.679c-24.31 47.867-54.598 89.556-90.861 125.074 41.505 30.288 87.864 56.28 139.097 77.962l-16.266 26.922c-53.476-23.925-101.334-52.53-143.583-85.814-46.369 39.638-100.957 70.11-163.775 91.422l-15.144-26.36c60.197-19.071 112.174-47.114 155.922-84.132-27.299-23.557-51.978-48.419-74.035-74.596-16.081 21.313-33.091 40.199-51.039 56.648l-19.07-24.679c49.725-45.238 83.009-100.204 99.835-164.897l30.849 3.366zM486.2 626.141c89.739 23.557 171.434 52.161 245.101 85.813l-16.826 25.239c-80.766-36.272-162.846-64.685-246.223-85.253l17.948-25.799z m200.792-314.09H541.726l-13.461 23.557c23.925 29.166 50.286 55.342 79.083 78.522 30.287-29.166 56.832-63.186 79.644-102.079zM554.064 526.305c55.334 19.07 105.444 41.698 150.314 67.866l-15.144 23.557c-49.356-29.166-99.836-51.601-151.436-67.305l16.266-24.118z" fill="#FFFFFF" p-id="33331"></path></svg>