<?xml version="1.0" standalone="no"?><!DOCTYPE svg PUBLIC "-//W3C//DTD SVG 1.1//EN" "http://www.w3.org/Graphics/SVG/1.1/DTD/svg11.dtd"><svg t="1547791330722" class="icon" style="" viewBox="0 0 1024 1024" version="1.1" xmlns="http://www.w3.org/2000/svg" p-id="32518" xmlns:xlink="http://www.w3.org/1999/xlink" width="200" height="200"><defs><style type="text/css"></style></defs><path d="M45.658353 530.191059C45.658353 263.047529 263.047529 45.658353 530.191059 45.658353c267.143529 0 484.532706 217.389176 484.532706 484.532706 0 267.143529-217.389176 484.532706-484.532706 484.532706-267.143529 0-484.532706-217.389176-484.532706-484.532706zM315.030588 239.134118l-30.117647 28.310588c43.369412 34.936471 77.101176 68.065882 101.797647 98.785882l31.322353-31.924706c-27.708235-31.322353-62.042353-63.247059-103.002353-95.171764z m366.230588 533.082353h127.096471l10.842353-43.971765c-14.456471 1.204706-35.538824 1.807059-62.644706 2.409412-27.708235 0-54.211765 0.602353-80.715294 0.602353-49.392941 0-90.955294-0.602353-124.084706-1.204706-37.345882-1.204706-66.258824-5.421176-85.534118-13.251765-17.468235-8.432941-33.731765-21.082353-49.392941-37.948235-5.421176-6.023529-10.842353-10.24-15.661176-13.854118V439.115294H272.865882v40.96h86.738824V662.588235c-25.298824 10.842353-53.609412 42.164706-86.136471 93.967059l32.527059 28.912941c33.731765-56.621176 58.428235-84.329412 72.884706-84.329411 7.830588 0 16.263529 4.818824 24.696471 15.058823 19.275294 21.684706 41.562353 36.743529 66.861176 43.971765 24.696471 6.625882 57.825882 10.24 98.785882 10.842353 40.357647 0.602353 77.703529 1.204706 112.037647 1.204706z m-18.070588-80.715295c36.141176 0 54.814118-18.070588 54.814118-53.007058V372.254118h89.148235v-42.767059h-89.148235V231.905882h-43.971765v97.581177H446.343529v42.767059h227.689412v256c0 16.263529-9.035294 24.696471-25.901176 24.69647-25.298824 0-52.404706-1.204706-80.112941-3.011764l9.637647 41.562352h85.534117zM512 425.863529l-33.731765 21.684706c36.743529 43.971765 65.656471 83.727059 87.341177 119.868236l34.93647-24.094118c-20.48-33.731765-49.995294-72.884706-88.545882-117.458824z" fill="#1296db" p-id="32519"></path></svg>