<?xml version="1.0" standalone="no"?><!DOCTYPE svg PUBLIC "-//W3C//DTD SVG 1.1//EN" "http://www.w3.org/Graphics/SVG/1.1/DTD/svg11.dtd"><svg t="1547798155089" class="icon" style="" viewBox="0 0 1024 1024" version="1.1" xmlns="http://www.w3.org/2000/svg" p-id="38821" xmlns:xlink="http://www.w3.org/1999/xlink" width="200" height="200"><defs><style type="text/css"></style></defs><path d="M902.1 916.8c-5.1 0-10.4-1.9-14.7-6.5-0.3-0.3-0.6-0.7-1.1-1.2-0.9-0.9-2.2-2.3-4-4.3-3.5-3.8-8.9-9.7-16.5-18.1-1.1-1.2-2-2.5-2.8-3.9-31.7-35.7-87.5-98.4-118.5-135.3-6.4-7.6-6.2-18.8 0.4-26.2 86.7-96.8 111.9-232.3 65.8-353.6-67.6-178.3-267.7-268.2-446-200.6-86.4 32.8-154.8 97.2-192.7 181.4-37.9 84.2-40.7 178.2-7.9 264.5 32.6 86 98.6 154.4 185.7 192.6 86.9 38.1 182.4 40.9 269.2 8 10.3-3.9 21.9 1.3 25.8 11.6 3.9 10.3-1.3 21.9-11.6 25.8-48.7 18.5-100 26.9-152.5 24.9-50.7-1.9-100.1-13.2-146.9-33.7-46.9-20.6-88.6-49.2-123.9-85.2-36.7-37.5-64.7-81.2-83.2-129.8-18.5-48.7-26.9-99.5-24.9-151.2 1.9-49.8 13.2-98.3 33.8-144 20.5-45.7 49.3-86.3 85.3-120.8 37.3-35.7 81-63.2 129.6-81.6 48.7-18.5 99.5-26.9 151.2-24.9 49.8 1.9 98.3 13.2 144 33.8 45.7 20.5 86.3 49.3 120.8 85.3 35.7 37.3 63.2 81 81.6 129.6 25.6 67.4 31.8 140.2 18 210.6-12.3 62.7-39.8 121.3-80.1 170.6 34.3 40.2 86.9 99.3 113.7 129.2 5.4 6 9.7 10.9 12.7 14.3 1.5 1.7 2.7 3.1 3.5 4 0.5 0.5 0.8 0.9 1.1 1.2 8.1 9.5 5.6 21.8-1.5 28.2-3.5 3.4-8.3 5.3-13.4 5.3z" p-id="38822" fill="#cdcdcd"></path></svg>