<?xml version="1.0" standalone="no"?><!DOCTYPE svg PUBLIC "-//W3C//DTD SVG 1.1//EN" "http://www.w3.org/Graphics/SVG/1.1/DTD/svg11.dtd"><svg t="1547598548084" class="icon" style="" viewBox="0 0 1024 1024" version="1.1" xmlns="http://www.w3.org/2000/svg" p-id="1538" xmlns:xlink="http://www.w3.org/1999/xlink" width="200" height="200"><defs><style type="text/css"></style></defs><path d="M511.8 64.3c123.6 0 235.5 50.1 316.5 131.1s131.1 192.9 131.1 316.5-50.1 235.5-131.1 316.5-192.9 131.1-316.5 131.1-235.5-50.1-316.5-131.1S64.2 635.5 64.2 511.9s50.1-235.5 131.1-316.5c80.9-81 192.8-131.1 316.5-131.1z" fill="#5EADEF" p-id="1539"></path><path d="M511.8 103.3c112.8 0 215 45.7 289 119.7s119.7 176.1 119.7 289c0 112.8-45.7 215-119.7 289s-176.1 119.7-289 119.7c-112.8 0-215-45.7-289-119.7S103.1 624.9 103.1 512c0-112.8 45.7-215 119.7-289 73.9-73.9 176.1-119.7 289-119.7z" fill="#3173E7" p-id="1540"></path><path d="M511.8 138.9c103 0 196.3 41.8 263.8 109.3S884.8 409 884.8 512 843 708.3 775.5 775.8 614.8 885.1 511.8 885.1 315.5 843.3 248 775.8 138.7 615 138.7 512 180.5 315.7 248 248.2s160.7-109.3 263.8-109.3z" fill="#E7F5FD" p-id="1541"></path><path d="M278.9 775.8C211.4 708.3 169.6 615 169.6 512s41.8-196.3 109.3-263.8c64-64 151.2-104.9 247.9-108.9-5.3-0.2-10.5-0.3-15.8-0.3-103 0-196.3 41.8-263.8 109.3C179.7 315.7 137.9 409 137.9 512s41.8 196.3 109.3 263.8S408 885.1 511 885.1c5.3 0 10.6-0.1 15.8-0.3-96.7-4.1-183.9-45-247.9-109z" fill="#B0CEF6" p-id="1542"></path><path d="M196.3 484.3c7.4 0 14.2 3 19.1 7.9 4.9 4.9 7.9 11.6 7.9 19.1 0 7.4-3 14.2-7.9 19.1-4.9 4.9-11.6 7.9-19.1 7.9-7.4 0-14.2-3-19.1-7.9-4.9-4.9-7.9-11.6-7.9-19.1 0-7.4 3-14.2 7.9-19.1 5-4.9 11.7-7.9 19.1-7.9zM827.2 484.3c7.4 0 14.2 3 19.1 7.9 4.9 4.9 7.9 11.6 7.9 19.1 0 7.4-3 14.2-7.9 19.1-4.9 4.9-11.6 7.9-19.1 7.9-7.4 0-14.2-3-19.1-7.9-4.9-4.9-7.9-11.6-7.9-19.1 0-7.4 3-14.2 7.9-19.1 4.9-4.9 11.6-7.9 19.1-7.9zM538.7 195.8c0 7.4-3 14.2-7.9 19.1-4.9 4.9-11.6 7.9-19.1 7.9s-14.2-3-19.1-7.9c-4.9-4.9-7.9-11.6-7.9-19.1s3-14.2 7.9-19.1c4.9-4.9 11.6-7.9 19.1-7.9s14.2 3 19.1 7.9c4.9 5 7.9 11.7 7.9 19.1zM538.7 826.7c0 7.4-3 14.2-7.9 19.1-4.9 4.9-11.6 7.9-19.1 7.9s-14.2-3-19.1-7.9c-4.9-4.9-7.9-11.6-7.9-19.1 0-7.4 3-14.2 7.9-19.1 4.9-4.9 11.6-7.9 19.1-7.9s14.2 3 19.1 7.9c4.9 4.9 7.9 11.6 7.9 19.1z" fill="#5EADEF" p-id="1543"></path><path d="M307.4 269.2c5.3 5.3 7.9 12.2 7.9 19.1 0 6.9-2.6 13.8-7.9 19.1-5.3 5.3-12.2 7.9-19.1 7.9-6.9 0-13.8-2.6-19.1-7.9-5.3-5.3-7.9-12.2-7.9-19.1 0-6.9 2.6-13.8 7.9-19.1 5.3-5.3 12.2-7.9 19.1-7.9 6.9 0 13.8 2.6 19.1 7.9zM753.4 715.2c5.3 5.3 7.9 12.2 7.9 19.1 0 6.9-2.6 13.8-7.9 19.1-5.3 5.3-12.2 7.9-19.1 7.9-6.9 0-13.8-2.6-19.1-7.9-5.3-5.3-7.9-12.2-7.9-19.1 0-6.9 2.6-13.8 7.9-19.1 5.3-5.3 12.2-7.9 19.1-7.9 7 0 13.9 2.7 19.1 7.9zM753.4 307.3c-5.3 5.3-12.2 7.9-19.1 7.9-6.9 0-13.8-2.6-19.1-7.9-5.3-5.3-7.9-12.2-7.9-19.1 0-6.9 2.6-13.8 7.9-19.1 5.3-5.3 12.2-7.9 19.1-7.9 6.9 0 13.8 2.6 19.1 7.9s7.9 12.2 7.9 19.1c0 6.9-2.6 13.8-7.9 19.1zM307.4 753.3c-5.3 5.3-12.2 7.9-19.1 7.9-6.9 0-13.8-2.6-19.1-7.9-5.3-5.3-7.9-12.2-7.9-19.1 0-6.9 2.6-13.8 7.9-19.1 5.3-5.3 12.2-7.9 19.1-7.9 6.9 0 13.8 2.6 19.1 7.9 5.3 5.3 7.9 12.2 7.9 19.1 0 7-2.7 13.9-7.9 19.1z" fill="#95CAF5" p-id="1544"></path><path d="M825.3 508.3l-235-30.5c-4.2-9.5-10.1-18.1-17.4-25.4-15.2-15.2-36.3-24.7-59.5-24.7-23.3 0-44.3 9.4-59.5 24.7-15.2 15.2-24.7 36.3-24.7 59.5 0 23.3 9.4 44.3 24.7 59.5 15.2 15.2 36.3 24.7 59.5 24.7 23.3 0 44.3-9.4 59.5-24.7 7.4-7.4 13.5-16.2 17.7-26l234.7-37.1z" fill="#FCCA4C" p-id="1545"></path><path d="M453.8 467c15.2-15.2 36.3-24.7 59.5-24.7 23.3 0 44.3 9.4 59.5 24.7 7.3 7.3 13.2 15.8 17.4 25.4l235 16-235-30.5c-4.2-9.5-10.1-18.1-17.4-25.4-15.2-15.2-36.3-24.7-59.5-24.7-23.3 0-44.3 9.4-59.5 24.7-15.2 15.2-24.7 36.3-24.7 59.5 0 2.4 0.1 4.9 0.3 7.3 1.8-20.4 10.7-38.7 24.4-52.3z" fill="#FEE5A6" p-id="1546"></path><path d="M544.2 479.6l-30.9-230.3-34 230.3c-8.3 8.3-13.4 19.8-13.4 32.4 0 12.7 5.1 24.1 13.4 32.4 8.3 8.3 19.8 13.4 32.4 13.4 12.7 0 24.1-5.1 32.4-13.4 8.3-8.3 13.4-19.8 13.4-32.4 0.1-12.7-5-24.1-13.3-32.4z" fill="#F99403" p-id="1547"></path><path d="M544.4 479.6l-31.1-230.3L537 479.6c8.3 8.3 13.4 19.8 13.4 32.4 0 12.7-5.1 24.1-13.4 32.4-7.5 7.5-17.6 12.4-28.8 13.3 1.2 0.1 2.4 0.2 3.7 0.2 12.7 0 24.1-5.1 32.4-13.4 8.3-8.3 13.4-19.8 13.4-32.4 0.1-12.8-5-24.2-13.3-32.5z" fill="#FCCA81" p-id="1548"></path><path d="M774.8 248.2C707.3 180.7 614.1 138.9 511 138.9c-6.4 0-12.7 0.2-19 0.5 95.5 4.8 181.5 45.5 244.8 108.8C804.3 315.7 846.1 409 846.1 512s-41.8 196.3-109.3 263.8c-63.3 63.3-149.3 104-244.8 108.8 6.3 0.3 12.6 0.5 19 0.5 103 0 196.3-41.8 263.8-109.3S884.1 615 884.1 512s-41.8-196.3-109.3-263.8z" fill="#FAFDFF" p-id="1549"></path><path d="M828.8 195.5c-81-81-192.9-131.1-316.5-131.1-8.1 0-16.1 0.2-24 0.6 114.1 6 216.8 54.7 292.5 130.5 81 81 131.1 192.9 131.1 316.5s-50.1 235.5-131.1 316.5C705.1 904.3 602.3 953 488.2 959c7.9 0.4 15.9 0.6 24 0.6 123.6 0 235.5-50.1 316.5-131.1S959.8 635.6 959.8 512c0.1-123.6-50-235.5-131-316.5z" fill="#9ECEF5" p-id="1550"></path></svg>