<?xml version="1.0" standalone="no"?><!DOCTYPE svg PUBLIC "-//W3C//DTD SVG 1.1//EN" "http://www.w3.org/Graphics/SVG/1.1/DTD/svg11.dtd"><svg t="1547598577966" class="icon" style="" viewBox="0 0 1024 1024" version="1.1" xmlns="http://www.w3.org/2000/svg" p-id="2336" xmlns:xlink="http://www.w3.org/1999/xlink" width="200" height="200"><defs><style type="text/css"></style></defs><path d="M522.705455 902.981818l-361.658182-361.192727a241.105455 241.105455 0 0 1 340.712727-340.712727l-32.581818 31.650909a194.56 194.56 0 0 0-275.083637 275.083636L522.705455 837.818182l307.2-307.2a194.56 194.56 0 1 0-275.083637-275.083637L385.396364 424.96l-33.047273-33.047273 169.890909-169.890909a241.105455 241.105455 0 0 1 340.712727 340.712727z" fill="#d4237a" p-id="2337"></path><path d="M774.516364 408.203636A93.090909 93.090909 0 0 0 702.370909 325.818182l6.981818-46.545455a136.843636 136.843636 0 0 1 111.243637 123.345455z" fill="#d4237a" p-id="2338" data-spm-anchor-id="a313x.7781069.0.i2" class=""></path></svg>