<?xml version="1.0" standalone="no"?><!DOCTYPE svg PUBLIC "-//W3C//DTD SVG 1.1//EN" "http://www.w3.org/Graphics/SVG/1.1/DTD/svg11.dtd"><svg t="1547798092117" class="icon" style="" viewBox="0 0 1024 1024" version="1.1" xmlns="http://www.w3.org/2000/svg" p-id="35512" xmlns:xlink="http://www.w3.org/1999/xlink" width="200" height="200"><defs><style type="text/css"></style></defs><path d="M883.0976 940.2368c-10.4448 0-20.48-4.096-28.2624-11.4688L622.7968 706.56H91.3408C39.3216 706.56 0 668.8768 0 618.7008V95.0272C0 43.6224 41.7792 0 91.3408 0H927.744c51.4048 0 96.256 44.4416 96.256 95.0272v523.6736c0 48.5376-43.008 87.8592-96.256 87.8592h-4.5056l0.8192 192.512c0 16.384-9.6256 31.3344-24.7808 37.888-5.3248 2.2528-10.8544 3.2768-16.1792 3.2768zM91.3408 81.92c-4.096 0-9.4208 6.5536-9.4208 13.1072v523.6736c0 1.4336 0 5.9392 9.4208 5.9392h547.84c10.6496 0 20.6848 4.096 28.2624 11.4688l174.08 166.912-0.6144-137.0112c0-10.8544 4.3008-21.504 11.8784-29.0816 7.7824-7.7824 18.2272-12.0832 29.0816-12.0832H927.744c7.9872 0 14.336-4.096 14.336-5.7344V95.0272c0-4.9152-7.9872-13.1072-14.336-13.1072H91.3408z" p-id="35513" fill="#ffffff"></path><path d="M244.1216 414.3104c-31.1296 0-56.32-25.1904-56.32-56.32s25.1904-56.32 56.32-56.32 56.32 25.1904 56.32 56.32-25.1904 56.32-56.32 56.32z m0-81.92c-14.1312 0-25.6 11.4688-25.6 25.6s11.4688 25.6 25.6 25.6 25.6-11.4688 25.6-25.6-11.4688-25.6-25.6-25.6zM510.3616 414.3104c-31.1296 0-56.32-25.1904-56.32-56.32s25.1904-56.32 56.32-56.32 56.32 25.1904 56.32 56.32-25.1904 56.32-56.32 56.32z m0-81.92c-14.1312 0-25.6 11.4688-25.6 25.6s11.4688 25.6 25.6 25.6 25.6-11.4688 25.6-25.6-11.4688-25.6-25.6-25.6zM766.5664 414.3104c-31.1296 0-56.32-25.1904-56.32-56.32s25.1904-56.32 56.32-56.32 56.32 25.1904 56.32 56.32-25.3952 56.32-56.32 56.32z m0-81.92c-14.1312 0-25.6 11.4688-25.6 25.6s11.4688 25.6 25.6 25.6 25.6-11.4688 25.6-25.6-11.4688-25.6-25.6-25.6z" p-id="35514" fill="#ffffff"></path></svg>