<?xml version="1.0" standalone="no"?><!DOCTYPE svg PUBLIC "-//W3C//DTD SVG 1.1//EN" "http://www.w3.org/Graphics/SVG/1.1/DTD/svg11.dtd"><svg t="1547869698440" class="icon" style="" viewBox="0 0 1024 1024" version="1.1" xmlns="http://www.w3.org/2000/svg" p-id="6610" xmlns:xlink="http://www.w3.org/1999/xlink" width="200" height="200"><defs><style type="text/css"></style></defs><path d="M704 176v-32c0-52.8-43.2-96-96-96H416c-52.8 0-96 43.2-96 96v32c-88 0-160 72-160 160v416c0 88 72 160 160 160h32v32c0 17.6 14.4 32 32 32s32-14.4 32-32v-32h192v32c0 17.6 14.4 32 32 32s32-14.4 32-32v-32h32c88 0 160-72 160-160V336c0-88-72-160-160-160z m-320-32c0-17.6 14.4-32 32-32h192c17.6 0 32 14.4 32 32v32H384v-32z m416 608c0 52.8-43.2 96-96 96H320c-52.8 0-96-43.2-96-96V336c0-52.8 43.2-96 96-96h384c52.8 0 96 43.2 96 96v416z" p-id="6611" fill="#2c2c2c"></path><path d="M400 336c-17.6 0-32 14.4-32 32v352c0 17.6 14.4 32 32 32s32-14.4 32-32V368c0-17.6-14.4-32-32-32z m224 0c-17.6 0-32 14.4-32 32v352c0 17.6 14.4 32 32 32s32-14.4 32-32V368c0-17.6-14.4-32-32-32z" p-id="6612" fill="#2c2c2c"></path></svg>