<?xml version="1.0" standalone="no"?><!DOCTYPE svg PUBLIC "-//W3C//DTD SVG 1.1//EN" "http://www.w3.org/Graphics/SVG/1.1/DTD/svg11.dtd"><svg t="1547869279348" class="icon" style="" viewBox="0 0 1024 1024" version="1.1" xmlns="http://www.w3.org/2000/svg" p-id="4410" xmlns:xlink="http://www.w3.org/1999/xlink" width="200" height="200"><defs><style type="text/css"></style></defs><path d="M976.332178 729.643532 976.332178 232.14536C976.332178 104.141215 872.166089 0.008291 744.153651 0.008291L279.846348 0.008291C151.842202 0.008291 47.676113 104.141215 47.676113 232.14536L47.676113 729.643532C47.676113 784.516663 92.32583 829.133214 147.165798 829.133214L166.086996 829.133214 56.854802 938.365408C43.920065 951.300147 43.920065 972.302509 56.854802 985.270414 69.822704 998.205149 90.816777 998.205149 103.759806 985.270414L259.888712 829.133214 763.588923 829.133214 919.692954 985.270414C932.660858 998.205149 953.663224 998.205149 966.597959 985.270414 979.565863 972.302509 979.565863 951.300147 966.597959 938.365408L857.382349 829.133214 876.834202 829.133214C931.674171 829.133214 976.332178 784.516663 976.332178 729.643532L976.332178 729.643532ZM114.016389 729.643532 114.016389 465.824646 114.016389 464.315597 114.016389 232.14536C114.016389 140.557474 188.258462 66.315401 279.846348 66.315401L744.153651 66.315401C835.741538 66.315401 909.991904 140.557474 909.991904 232.14536L909.991904 729.643532C909.991904 747.96774 895.125248 762.826106 876.834202 762.826106L777.477183 762.826106 777.178687 762.826106 246.298947 762.826106 246.000453 762.826106 147.165798 762.826106C128.874753 762.826106 114.016389 747.96774 114.016389 729.643532L114.016389 729.643532Z" p-id="4411"></path><path d="M312.995757 232.178526 711.004243 232.178526C729.328455 232.178526 744.153651 217.320162 744.153651 198.995951 744.153651 180.671741 729.328455 165.838251 711.004243 165.838251L312.995757 165.838251C294.704712 165.838251 279.846348 180.671741 279.846348 198.995951 279.846348 217.320162 294.704712 232.178526 312.995757 232.178526" p-id="4412"></path><path d="M711.004243 895.473491 312.995757 895.473491C294.704712 895.473491 279.846348 910.340147 279.846348 928.664355 279.846348 946.955402 294.704712 961.813764 312.995757 961.813764L711.004243 961.813764C729.328455 961.813764 744.153651 946.955402 744.153651 928.664355 744.153651 910.340147 729.328455 895.473491 711.004243 895.473491" p-id="4413"></path><path d="M677.813378 497.506462C677.813378 534.121716 707.513521 563.813569 744.153651 563.813569 780.802072 563.813569 810.493928 534.121716 810.493928 497.506462 810.493928 460.858041 780.802072 431.166184 744.153651 431.166184 707.513521 431.166184 677.813378 460.858041 677.813378 497.506462" p-id="4414"></path><path d="M279.846348 563.813569C316.461603 563.813569 346.186624 534.121716 346.186624 497.506462 346.186624 460.858041 316.461603 431.166184 279.846348 431.166184 243.197927 431.166184 213.506073 460.858041 213.506073 497.506462 213.506073 534.121716 243.197927 563.813569 279.846348 563.813569" p-id="4415"></path></svg>