<?xml version="1.0" standalone="no"?><!DOCTYPE svg PUBLIC "-//W3C//DTD SVG 1.1//EN" "http://www.w3.org/Graphics/SVG/1.1/DTD/svg11.dtd"><svg t="1547626764138" class="icon" style="" viewBox="0 0 1024 1024" version="1.1" xmlns="http://www.w3.org/2000/svg" p-id="6917" xmlns:xlink="http://www.w3.org/1999/xlink" width="200" height="200"><defs><style type="text/css"></style></defs><path d="M524.56871953 398.09597526H637.68719975v62.05805463H524.56871953z" fill="#F96977" p-id="6918"></path><path d="M768.087671 338.39455418s-91.90876518-7.85544953-161.82227081-57.34478463c-64.41468963-46.34715557-76.19786466-57.34478462-76.19786466-57.34478463s-21.99525954 33.77843458-66.77132612 57.34478463c-73.05568514 39.27725056-171.24881083 57.34478462-171.24880935 57.34478463v301.64928058c0 76.98341065 102.12084972 98.9786702 181.46089535 158.68009131 38.49170459 29.06516457 57.34478462 47.1327001 57.34478462 47.13270007s16.49644503-17.28198956 52.63151462-43.99052057c78.55449965-58.91587511 184.60307488-82.48222515 186.17416537-161.82227081V338.39455418z m-367.63506075 361.35070168c2.35663501-8.64099551 3.14217952-25.92298506 3.14217952-54.20260511V498.6457345c-5.49881452 7.06990501-11.78317502 17.28198956-19.63862453 30.63625506-7.85544953 12.56871953-14.13981003 21.20971504-16.49644505 25.92298503-5.49881452-10.99763052-11.78317502-21.99525954-19.63862599-32.20734407 32.99289006-29.85071054 63.62914512-87.19549519 91.90876517-172.03435536 22.78080553 8.64099551 36.13506958 14.92535453 40.06279507 20.42416907-0.78554451 2.35663501-3.14217952 3.9277255-6.28435903 6.28436051-3.9277255 2.35663501-6.2843605 3.9277255-7.85545098 6.2843605-2.35663501 2.35663501-13.3542655 23.56635005-33.77843458 63.62914513V645.54265075c-0.78554451 29.06516457-0.78554451 46.34715557 1.5710905 52.63151462l1.571089 1.57109049h-34.5639791z m283.5817451-17.28199103c-46.34715557-25.92298506-76.98341065-66.77132464-91.9087652-122.54502021v86.40995064c0 22.78080553 0.78554451 36.92061556 1.5710905 43.20497461 0.78554451 3.9277255 1.5710905 7.06990501 1.57108902 9.42654001h-35.34952505c2.35663501-8.64099551 3.14217952-25.92298506 3.14218097-52.63151462v-84.83886017c-22.78080553 47.1327001-54.2026051 86.40995067-95.05094618 117.83175023-6.2843605-7.06990501-17.28198956-15.71090051-33.77843458-25.13744053 43.20497459-18.85308003 76.98341065-51.84597011 102.90639571-98.9786702h-35.34952507c-22.78080553 0.78554451-38.49170459 2.35663501-47.91824607 3.14218098v-32.20734554c0 2.35663501 15.71090051 3.14217952 46.34715558 3.14217953h62.84360061v-41.63388412h-22.78080553c-18.06753553 0.78554451-31.42179956 1.5710905-40.06279508 1.57108903h-7.85544953v-20.42416906c0-7.06990501 0.78554451-14.13981003 1.57108902-20.42417053v-40.06279507c-0.78554451-12.56871953-1.5710905-22.78080553-1.57108902-30.63625507v-9.42654003c12.56871953 2.35663501 25.92298506 3.14217952 40.06279509 3.14217952h93.4798542c18.06753553 0 33.77843458-0.78554451 46.34715558-3.14217952-2.35663501 14.13981003-3.14217952 29.06516457-3.14217952 44.77606509v30.63625505c0 8.64099551 0.78554451 18.85308003 1.57108901 30.63625508 0.78554451 8.64099551 1.5710905 12.56871953 1.57109051 14.13981002-26.70852957 0-43.20497459-0.78554451-48.70379057-1.57109049h-30.63625507v41.63388557h58.13033059c21.20971504 0 38.49170459-0.78554451 50.2748796-1.5710905v33.77843606c3.9277255 0.78554451-3.14217952 0-21.20971502-3.142181-9.42654002-0.78554451-19.63862455-2.35663501-29.06516458-3.14217951h-38.49170459c19.63862455 43.99052059 53.4170606 76.98341065 101.33530522 98.97867021-14.13981003 9.42654002-23.56635005 18.85308003-29.85071055 29.06516454z" fill="#F96977" p-id="6919"></path><path d="M514.35663501 10.82228851c-276.51184005 0-500.3921655 223.88032544-500.3921655 500.39216698s223.88032544 500.3921655 500.3921655 500.3921655S1014.7488005 787.72629555 1014.7488005 511.21445549s-223.88032544-500.3921655-500.39216549-500.39216698z m290.65165008 644.93244678c0 83.26776967-123.33056476 117.04620573-214.45378544 183.03198585-40.84833959 29.85071054-60.48696561 60.48696561-60.48696412 60.48696414s-21.99525954-32.99289006-65.20023563-64.41468963c-91.12322067-66.77132464-209.7405154-97.4075797-209.74051541-179.10426036v-353.49525069s74.62677565-2.35663501 172.03435534-48.70379059c75.41232014-36.13506958 102.90639569-85.62440467 102.9063957-85.6244047s25.13744054 29.85071054 102.90639422 85.6244047c76.98341065 54.98814961 172.03435535 48.70379059 172.03435534 48.70379059v353.49525069z" fill="#F96977" p-id="6920"></path></svg>