<?xml version="1.0" standalone="no"?><!DOCTYPE svg PUBLIC "-//W3C//DTD SVG 1.1//EN" "http://www.w3.org/Graphics/SVG/1.1/DTD/svg11.dtd"><svg t="1547626345587" class="icon" style="" viewBox="0 0 1024 1024" version="1.1" xmlns="http://www.w3.org/2000/svg" p-id="770" xmlns:xlink="http://www.w3.org/1999/xlink" width="200" height="200"><defs><style type="text/css"></style></defs><path d="M416.712704 213.792768c0-10.489856-0.043008-19.654656-0.07168-28.809216-0.024576-7.278592 6.504448-11.681792 12.392448-11.681792 6.815744 0 12.447744 5.459968 12.314624 11.972608-0.188416 9.121792-0.12288 18.272256-0.12288 27.951104h143.423488c0-3.835904 0.036864-7.671808 0.063488-11.507712 0.03072-3.93216 0.053248-7.866368 0.03072-11.798528-0.024576-3.966976 0.120832-8.351744 2.441216-11.739136a10.934272 10.934272 0 0 1 6.414336-4.440064 16.488448 16.488448 0 0 1 3.801088-0.438272c4.800512 0 9.345024 2.7136 10.872832 7.405568 1.312768 4.03456 0.800768 8.097792 0.75776 12.265472-0.043008 4.358144 0.026624 8.718336 0.075776 13.07648 0.008192 0.663552 0.069632 7.74144 0.053248 7.74144h11.460608c40.609792 0 81.221632-0.096256 121.831424 0.026624 59.168768 0.176128 108.285952 49.061888 108.333056 108.095488 0.116736 140.261376 0.120832 280.522752-0.002048 420.786176-0.049152 58.535936-49.092608 107.84768-107.460608 107.905024-154.253312 0.147456-308.508672 0.147456-462.764032 0-58.384384-0.0512-107.4688-49.348608-107.52-107.84768-0.124928-140.263424-0.116736-280.526848-0.004096-420.786176 0.047104-59.047936 49.149952-107.978752 108.288-108.150784 44.662784-0.129024 89.325568-0.026624 135.391232-0.026624z m0 26.656768c-3.295232-0.21504-5.595136-0.497664-7.892992-0.497664-42.653696-0.022528-85.30944-0.335872-127.956992 0.077824-45.299712 0.438272-81.557504 36.907008-81.635328 82.489344-0.239616 139.902976-0.212992 279.805952-0.004096 419.704832 0.055296 38.531072 26.32704 71.176192 63.776768 79.888384 8.192 1.908736 16.861184 2.451456 25.311232 2.459648 149.116928 0.139264 298.233856-0.591872 447.342592 0.464896 54.949888 0.385024 89.454592-43.036672 89.298944-83.963904-0.524288-139.216896 0.100352-278.439936-0.374784-417.654784-0.16384-48.406528-36.46464-83.300352-84.799488-83.458048-40.26368-0.13312-80.52736-0.038912-120.793088-0.006144-2.965504 0.002048-5.933056 0.3072-9.818112 0.52224 0 3.801088-0.079872 7.600128-0.13312 11.401216-0.0512 3.67616-0.075776 7.354368 0.04096 11.02848 0.124928 3.9424 0.272384 8.226816-1.531904 11.851776-1.204224 2.41664-2.85696 3.971072-5.302272 5.177344-1.497088 0.739328-4.001792 0.987136-5.49888 1.017856-1.144832 0.024576-3.823616-0.0512-6.473728-1.931264-2.23232-1.583104-3.79904-3.872768-4.595712-6.479872-0.821248-2.69312-1.087488-5.271552-0.99328-8.06912 0.065536-1.951744 0.1024-3.90144 0.114688-5.853184 0.022528-3.889152-0.043008-7.776256-0.090112-11.66336-0.006144-0.528384-0.065536-6.395904-0.049152-6.395904h-143.42144c0 9.742336 0.120832 18.894848 0.120832 28.020736 0 8.927232-7.36256 12.527616-12.316672 12.310528-5.666816-0.247808-11.97056-3.766272-12.398592-12.529664-0.456704-9.1136 0.073728-18.253824 0.073728-27.912192z" fill="" p-id="771"></path><path d="M514.11968 422.678528c65.4848 0 130.9696-0.006144 196.4544 0.006144 12.711936 0.004096 19.288064 5.343232 19.347456 15.59552 0.059392 10.205184-7.743488 17.076224-19.922944 17.08032-131.311616 0.04096-262.623232 0.004096-393.936896 0.079872-8.128512 0.004096-15.751168-1.875968-18.47296-9.793536-1.652736-4.800512-1.447936-12.398592 1.396736-16.001024 3.1232-3.96288 10.21952-6.649856 15.607808-6.684672 66.5088-0.432128 133.019648-0.282624 199.5264-0.282624zM451.65568 611.094528c45.355008 0 90.714112-0.016384 136.071168 0.012288 11.081728 0.006144 19.081216 6.842368 19.382272 16.402432 0.311296 9.89184-7.028736 16.283648-18.874368 16.285696-90.374144 0.014336-180.748288 0.01024-271.120384 0-2.383872-0.002048-4.82304 0.17408-7.141376-0.251904-9.269248-1.703936-14.87872-9.193472-14.58176-18.16576 0.288768-8.732672 7.411712-14.2336 17.123328-14.247936 46.381056-0.073728 92.762112-0.032768 139.14112-0.034816z" fill="" p-id="772"></path></svg>