<?xml version="1.0" standalone="no"?><!DOCTYPE svg PUBLIC "-//W3C//DTD SVG 1.1//EN" "http://www.w3.org/Graphics/SVG/1.1/DTD/svg11.dtd"><svg t="1547806913577" class="icon" style="" viewBox="0 0 1024 1024" version="1.1" xmlns="http://www.w3.org/2000/svg" p-id="3425" xmlns:xlink="http://www.w3.org/1999/xlink" width="200" height="200"><defs><style type="text/css"></style></defs><path d="M120.205955 359.030889c74.169632 46.036323 196.93316 140.666543 207.163453 122.763529 58.824191-112.533234 97.187793-222.508895 156.011984-335.042129C434.787495 98.158392 427.114775 57.237216 460.36323 21.431187c25.575735-28.133309 71.612058-28.133309 99.745367-2.557573 35.806029 33.248456 30.690882 71.612058-20.460588 125.321101 28.133309 56.266617 148.339263 276.217938 176.472572 329.926982 10.230294 17.903015 115.090808-74.169632 186.702865-120.205955-5.115147-12.787868-12.787868-23.018162-15.345441-33.248455-15.345441-35.806029 2.557574-79.284779 38.363603-94.63022 35.806029-15.345441 76.727205 2.557574 92.072646 38.363603 15.345441 35.806029 0 84.399926-38.363603 94.630219-33.248456 7.672721-40.921176 28.133309-48.593896 56.266617-33.248456 125.321102-71.612058 250.642203-104.860514 375.963305-7.672721 30.690882-23.018162 40.921176-53.709043 40.921176H250.642203c-30.690882 0-46.036323-10.230294-53.709043-40.921176-35.806029-125.321102-74.169632-255.75735-112.533234-386.193599-2.557574-12.787868-15.345441-28.133309-28.133309-30.690882-46.036323-17.903015-66.496911-56.266617-51.15147-97.187793C20.460588 236.267361 63.939338 215.806773 102.30294 233.709788c40.921176 17.903015 53.709044 63.939338 28.133309 109.97566-2.557574 2.557574-5.115147 7.672721-10.230294 15.345441z m112.533234 659.853964c-25.575735-10.230294-35.806029-30.690882-33.248456-56.266617 5.115147-35.806029 30.690882-46.036323 61.381764-46.036323H767.272051c35.806029 0 53.709044 20.460588 56.266617 51.15147 0 33.248456-20.460588 53.709044-56.266617 56.266617-10.230294 0-521.744994 0-534.532862-5.115147zM511.5147 1024" p-id="3426" fill="#e0620d"></path></svg>