<?xml version="1.0" standalone="no"?><!DOCTYPE svg PUBLIC "-//W3C//DTD SVG 1.1//EN" "http://www.w3.org/Graphics/SVG/1.1/DTD/svg11.dtd"><svg t="1547857724392" class="icon" style="" viewBox="0 0 1042 1024" version="1.1" xmlns="http://www.w3.org/2000/svg" p-id="2978" xmlns:xlink="http://www.w3.org/1999/xlink" width="203.515625" height="200"><defs><style type="text/css"></style></defs><path d="M485.966102 225.627119 485.966102 468.610169 0 468.610169 0 260.338983C0 229.827254 5.449763 225.627119 34.711864 225.627119L277.694915 225.627119C218.962441 212.783729 168.526102 180.536407 166.894644 132.043932 165.263186 74.942915 226.911458-17.355932 316.954034 3.714169 409.912407 25.547932 474.823593 100.699119 524.565695 165.089627 574.759051 99.449492 645.848949 14.856678 742.86861 1.527322 823.920814-9.198644 890.914712 75.394169 882.271458 131.176136 874.877831 180.085153 820.831458 212.749017 763.661017 225.627119L1006.644068 225.627119C1035.871458 225.627119 1041.355932 229.827254 1041.355932 260.338983L1041.355932 468.610169 555.389831 468.610169 555.389831 225.627119C543.448949 224.412203 520.643254 225.696542 520.677966 225.627119M326.846915 54.324068C281.999186 35.857356 255.722305 55.677831 236.804339 88.272271 226.529627 106.704271 215.456542 131.210847 231.875254 149.226305 275.022102 195.601356 393.424271 192.199593 472.810305 183.556339 435.356203 134.682034 389.328271 80.114983 326.846915 54.324068L326.846915 54.324068ZM817.290847 148.844475C848.114983 107.60678 787.716339 21.729627 722.735729 53.490983 660.636203 84.002712 615.857898 133.744814 577.223593 182.723254 610.477559 185.743186 644.217492 186.541559 677.540881 184.840678 718.223186 183.139797 793.478508 180.154576 817.290847 148.844475L817.290847 148.844475ZM69.423729 1024C43.112136 1024 34.711864 1016.536949 34.711864 989.288136L34.711864 503.322034 485.966102 503.322034 485.966102 1024 69.423729 1024ZM1006.644068 989.288136C1006.644068 1016.571661 998.278508 1024 971.932203 1024L555.389831 1024 555.389831 503.322034 1006.644068 503.322034 1006.644068 989.288136Z" fill="#29c260" p-id="2979"></path></svg>