<?xml version="1.0" standalone="no"?><!DOCTYPE svg PUBLIC "-//W3C//DTD SVG 1.1//EN" "http://www.w3.org/Graphics/SVG/1.1/DTD/svg11.dtd"><svg t="1547857895089" class="icon" style="" viewBox="0 0 1024 1024" version="1.1" xmlns="http://www.w3.org/2000/svg" p-id="6480" xmlns:xlink="http://www.w3.org/1999/xlink" width="200" height="200"><defs><style type="text/css"></style></defs><path d="M671.43710938 65.44619141c-127.02392578 0-230.00888672 36.39199219-230.00888672 81.29179687V283.44921875c0 2.54882813 0.42363281 5.07304688 1.12324218 7.56298828 11.20166016 39.60351563 109.37109375 70.57705078 228.88564453 70.57705078 119.51806641 0 217.6875-30.97353516 228.88916016-70.57617187 0.70048828-2.49082031 1.12324219-5.01503906 1.12324219-7.56386719V146.73798828c0-44.89980469-102.9796875-81.29179688-230.01240235-81.29179687z m188.97978515 92.06982421c-9.69873047 7.04794922-24.09082031 13.82783203-41.6258789 19.61191407-39.70898438 13.10273438-92.04169922 20.32119141-147.35390625 20.3211914-55.30869141 0-107.64140625-7.21845703-147.34951172-20.3211914-17.53505859-5.78320313-31.92802734-12.56396484-41.62675782-19.61191407-7.47597656-5.42724609-10.00019531-9.49921875-10.41855468-10.77802734 0.41835937-1.27441406 2.94257812-5.34550781 10.41855468-10.77802734 9.69873047-7.04443359 24.09169922-13.82519531 41.62675782-19.61191407 39.70898438-13.10449219 92.04082031-20.32294922 147.34951172-20.32294921 55.31220703 0 107.64492188 7.21845703 147.35830078 20.32294921 17.52978516 5.78759766 31.92275391 12.56835938 41.62148437 19.61191407 7.47685547 5.43164063 10.00019531 9.50273438 10.41855469 10.77802734-0.41835937 1.27441406-2.94169922 5.35078125-10.41855469 10.77802734z m-84.121875 211.03417969c-31.47099609 5.71025391-67.04560547 9.00351563-104.85351562 9.00351563-37.81318359 0-73.38867188-3.29326172-104.85351563-9.00439453-74.25263672-13.47714844-125.15976562-35.6765625-125.15976562-67.21435547v53.64492187c-27.67148437-4.16865234-58.13085938-6.47841797-90.10986328-6.47841797-127.02832031 0-230.01416016 36.39111328-230.01416016 81.29091797V566.50976563c0 2.54882813 0.42363281 5.06777344 1.12324219 7.55859375 11.20605469 39.60351563 109.37109375 70.58232422 228.89091797 70.58232421 31.98515625 0 62.44365234-2.22363281 90.10986328-6.23144531 4.39716797-0.63720703 8.72138672-1.31835938 12.97265625-2.04785156a459.79804688 459.79804688 0 0 0 19.45546875-3.73535156c58.62568359-12.56835938 99.36738281-33.89150391 106.34589843-58.56767578 0.70136719-2.49082031 1.12324219-5.00976563 1.12324219-7.55859375v18.30761718c0 25.45839844-33.18134766 44.83212891-85.04033203 58.44726563-7.59814453 1.99863281-15.60058594 3.86630859-23.95634766 5.61621094a616.16337891 616.16337891 0 0 1-16.1578125 3.15351562c-4.81640625 0.87011719-9.73828125 1.68222656-14.74277343 2.44072266-27.68115234 4.18886719-58.08691406 6.55664063-90.10986328 6.55664062-37.8140625 0-73.38867188-3.28798828-104.85351563-8.99736328-74.25351563-13.48417969-125.16064453-35.68359375-125.16064453-67.22138672v136.71738281c0 2.54882813 0.42363281 5.06777344 1.12324219 7.55859375 11.20605469 39.60263672 109.37724609 70.58144531 228.89091797 70.58144532 45.28828125 0 87.50214844-4.44990234 123.09257812-12.13066407 58.32421875-12.58857422 98.83652344-33.85371094 105.79658203-58.45078125 0.69609375-2.49082031 1.11796875-5.00976563 1.11796875-7.55859375v18.30322266c0 25.35996094-32.90888672 44.67480469-84.39433594 58.28027344-12.55429687 3.31699219-26.20722656 6.29912109-40.76015625 8.94023437-31.47011719 5.71113281-67.04560547 8.99824219-104.85351562 8.99824219-37.80791016 0-73.38251953-3.28710938-104.85263672-8.99824219-74.25351563-13.48242188-125.15625-35.68359375-125.15625-67.22050781v136.71738281c0 2.54882813 0.42451172 5.06777344 1.12412109 7.55859375 11.20166016 39.60263672 109.37109375 70.58144531 228.88476563 70.58144532 119.51806641 0 217.68310547-30.97880859 228.89003906-70.58232422 0.69960937-2.48994141 1.12324219-5.00976563 1.12324219-7.55859375v-57.40400391c27.67148437 4.01220703 58.12470703 6.2296875 90.11513672 6.2296875 119.51367188 0 217.68398437-30.97353516 228.88564453-70.57617187 0.69960937-2.48994141 1.12324219-5.01503906 1.12324219-7.56210938V610.52451172c0 31.53867187-50.90185547 53.73720703-125.15625 67.22050781-31.46923828 5.71025391-67.04384766 8.99824219-104.85263672 8.99824219-32.02382812 0-62.43310547-2.36953125-90.11513672-6.55664063v-15.63310547c27.67148437 4.0078125 58.12470703 6.23144531 90.11513672 6.23144532 119.51367188 0 217.68398437-30.97441406 228.88564453-70.57792969 0.69960937-2.49433594 1.12324219-5.01416016 1.12324219-7.56298828V455.92578125c0 31.53779297-50.90185547 53.74335938-125.15625 67.22138672-31.46923828 5.71025391-67.04384766 8.99736328-104.85263672 8.99736328-32.02382812 0-62.43310547-2.36865234-90.11513672-6.55576172v-15.63310547c27.67148437 4.01308594 58.13085938 6.23144531 90.11513672 6.23144531 119.51367188 0 217.68398437-30.97441406 228.89091797-70.57792968 0.69960937-2.48994141 1.12324219-5.01416016 1.12324218-7.56298828V301.33496094c-0.01054687 31.53779297-50.91240234 53.73632813-125.16503906 67.21435547zM540.28847656 440.57128906c-9.69873047 7.04794922-24.09082031 13.82871094-41.62060547 19.61103516-11.41083984 3.76611328-23.87285156 7.04443359-37.14257812 9.80595703a427.5984375 427.5984375 0 0 1-14.83505859 2.8125c-1.74023438 0.30058594-3.49628906 0.59326172-5.26201172 0.87451172-27.86572266 4.46484375-58.5 6.82998047-90.11425782 6.82998047-55.30957031 0-107.64140625-7.21845703-147.35566406-20.32294922-17.52978516-5.78232422-31.92275391-12.56748047-41.62148437-19.61103516-7.47597656-5.428125-10.00019531-9.50361328-10.41855469-10.77890625 0.41835937-1.27880859 2.94257812-5.34990234 10.41855469-10.77802734 9.69873047-7.04794922 24.09169922-13.82871094 41.62148437-19.61191406 39.71425781-13.10449219 92.04609375-20.3203125 147.35478516-20.3203125 31.61513672 0 62.24941406 2.3625 90.11513672 6.82822265 20.89072266 3.34511719 40.22578125 7.87939453 57.23964843 13.49208985 17.52978516 5.78320313 31.921875 12.56396484 41.62060547 19.60664062 7.48125 5.43339844 10.00195313 9.50449219 10.4194336 10.78417969-0.41835937 1.27792969-2.93818359 5.34990234-10.4194336 10.77802734z" p-id="6481" fill="#1296db"></path></svg>