<?xml version="1.0" standalone="no"?><!DOCTYPE svg PUBLIC "-//W3C//DTD SVG 1.1//EN" "http://www.w3.org/Graphics/SVG/1.1/DTD/svg11.dtd"><svg t="1547857694897" class="icon" style="" viewBox="0 0 1024 1024" version="1.1" xmlns="http://www.w3.org/2000/svg" p-id="2089" xmlns:xlink="http://www.w3.org/1999/xlink" width="200" height="200"><defs><style type="text/css"></style></defs><path d="M957.960423 347.620186c-0.690732-1.571798-126.062114-212.274638-126.062114-212.274638l-96.90812 212.274638h222.970234m-612.343359 0H676.173618L510.900457 113.671922 345.617064 347.620186m131.331117-244.354264H243.571946c-9.105379 0-18.919908 3.289929-27.27111 8.633634l99.899244 218.881103L476.948181 103.265922m329.795215 5.934152c-7.233752-3.734044-15.138792-5.934153-22.590508-5.934152H544.842501l160.75731 227.523946 101.143585-221.589794M336.220043 381.362684S511.245312 920.697239 511.654634 920.733055l173.934425-539.370371H336.220043M192.482361 140.979872L69.382719 347.620186h217.418798l-94.319156-206.640314M65.347822 381.362684l393.171638 488.299205-157.750837-488.299205H65.347822m893.302309 0H721.030245L559.344796 882.747929S957.087543 385.615545 958.650131 381.362684" p-id="2090" fill="#f4ea2a"></path></svg>