<?xml version="1.0" standalone="no"?><!DOCTYPE svg PUBLIC "-//W3C//DTD SVG 1.1//EN" "http://www.w3.org/Graphics/SVG/1.1/DTD/svg11.dtd"><svg t="1547598664914" class="icon" style="" viewBox="0 0 1024 1024" version="1.1" xmlns="http://www.w3.org/2000/svg" p-id="2634" xmlns:xlink="http://www.w3.org/1999/xlink" width="200" height="200"><defs><style type="text/css"></style></defs><path d="M863.133 838.074H161.066c-35.864 0-65.042-29.178-65.042-65.041V258.645c0-35.864 29.177-65.042 65.042-65.042h702.066c35.863 0 65.041 29.178 65.041 65.042v514.388c0.001 35.863-29.177 65.041-65.04 65.041z m-702.067-580.47c-0.497 0-1.042 0.545-1.042 1.042v514.388c0 0.496 0.545 1.041 1.042 1.041h702.066c0.496 0 1.041-0.545 1.041-1.041V258.645c0-0.496-0.545-1.042-1.041-1.042H161.066z" fill="#d4237a" p-id="2635"></path><path d="M146.109 348.097h737.963v64H146.109zM515.239 544.127H220.604c-17.673 0-32-14.326-32-32 0-17.673 14.327-32 32-32h294.635c17.673 0 32 14.327 32 32 0 17.674-14.327 32-32 32zM806.096 544.127H613.112c-17.673 0-32-14.326-32-32s14.327-32 32-32h192.983c17.673 0 32 14.327 32 32s-14.326 32-31.999 32zM420.195 658.085h-197.99c-17.673 0-32-14.327-32-32s14.327-32 32-32h197.99c17.673 0 32 14.327 32 32s-14.326 32-32 32z" fill="#d4237a" p-id="2636"></path></svg>